<svg width="48" height="48" viewBox="0 0 48 48" fill="none" xmlns="http://www.w3.org/2000/svg">
<g clip-path="url(#clip0_80_1369)">
<path d="M44.9963 13.4115C44.9963 13.4453 44.9963 13.4876 44.9875 13.5129C44.9434 13.8426 44.9434 14.1723 44.9698 14.5105C44.9875 14.595 45.0051 14.6795 45.0756 14.7472C45.19 14.874 45.3662 14.8486 45.4367 14.6964C45.4719 14.6204 45.4719 14.5443 45.4543 14.4682C45.3662 14.147 45.3486 13.8088 45.3398 13.4791C45.3398 13.4622 45.3398 13.4369 45.3398 13.4115C45.4367 13.4031 45.5248 13.3946 45.604 13.3946C45.6657 13.3861 45.7185 13.3777 45.7626 13.3523C45.8946 13.2847 45.8946 13.141 45.7537 13.0734C45.7009 13.048 45.6304 13.0396 45.5688 13.0396C45.3486 13.048 45.1284 13.048 44.9082 13.048C44.829 13.048 44.7497 13.0565 44.6704 13.0649C44.6263 13.0734 44.5735 13.0734 44.5383 13.0987C44.4766 13.1241 44.4414 13.1664 44.4414 13.2255C44.4502 13.2847 44.4766 13.3185 44.5383 13.3439C44.5735 13.3692 44.6175 13.3777 44.6616 13.3777C44.7672 13.3861 44.8818 13.4031 44.9963 13.4115ZM47.4184 13.8004C47.4184 13.8088 47.4272 13.8173 47.4272 13.8173C47.4624 14.0455 47.4977 14.2653 47.5241 14.4851C47.5329 14.5612 47.5417 14.6288 47.5946 14.688C47.709 14.8317 47.8852 14.8148 47.9645 14.6626C47.9997 14.5865 48.0085 14.5105 47.9909 14.4259C47.9381 14.1723 47.9116 13.9187 47.8588 13.6736C47.8235 13.5214 47.7795 13.3777 47.7355 13.2424C47.709 13.1579 47.6474 13.0987 47.5417 13.0903C47.436 13.0734 47.3567 13.1241 47.3127 13.2002C47.2599 13.2678 47.2158 13.3354 47.1806 13.4115C47.1189 13.5468 47.0661 13.682 46.9957 13.8088C46.9868 13.8426 46.978 13.868 46.9604 13.8934C46.9516 13.8764 46.9428 13.868 46.9428 13.868C46.8283 13.6567 46.7226 13.4453 46.6081 13.2424C46.5904 13.2255 46.5817 13.2086 46.5729 13.1917C46.52 13.1156 46.4584 13.0734 46.3615 13.0734C46.2734 13.0818 46.2029 13.1325 46.1589 13.2086C46.1413 13.2424 46.1413 13.2678 46.1325 13.3016C46.0972 13.5721 46.0532 13.8426 46.018 14.1131C46.0003 14.2653 45.9915 14.4175 45.9915 14.5696C45.9827 14.6034 45.9915 14.6457 46.0091 14.6795C46.0268 14.7471 46.0796 14.7894 46.1501 14.7979C46.2381 14.8063 46.2998 14.781 46.3262 14.7133C46.3526 14.6626 46.3615 14.6204 46.3703 14.5781C46.4055 14.4259 46.4319 14.2822 46.4584 14.1385C46.476 14.054 46.4848 13.9863 46.5112 13.8934C46.5288 13.9272 46.5464 13.9525 46.5641 13.9779C46.6433 14.0793 46.7226 14.1808 46.8195 14.2653C46.9164 14.3329 46.9957 14.3245 47.0749 14.2484C47.0925 14.2315 47.1013 14.223 47.1189 14.2061C47.1982 14.0878 47.2951 13.9694 47.3743 13.8511C47.392 13.8342 47.4008 13.8173 47.4184 13.8004Z" fill="#3A3B7B"/>
<path d="M27.1237 13.5774C27.0625 13.738 27.0508 13.8538 27.0791 13.95C27.1103 14.0808 27.1913 14.1236 27.3013 14.0903C28.3358 13.8448 30.6044 14.5417 31.4443 14.736C31.6424 14.7767 31.8035 14.5313 31.6683 14.3113C31.4711 14.0982 29.2035 13.1859 28.3383 13.1362C27.9992 13.1178 27.3929 13.0343 27.1237 13.5774Z" fill="#3A3B7B"/>
<path d="M35.9906 10.6241C36.1008 10.6852 36.1625 10.7435 36.1929 10.8085C36.2382 10.8939 36.2143 10.953 36.1382 10.9832C35.4543 11.3035 34.5443 12.6826 34.177 13.1582C34.088 13.2676 33.8826 13.2041 33.8516 13.0241C33.8579 12.8207 34.6646 11.3241 35.1148 10.9164C35.2917 10.7573 35.584 10.445 35.9906 10.6241Z" fill="#3A3B7B"/>
<path d="M30.5449 9.94541C30.6774 9.84959 30.8151 9.81602 30.8854 9.87828C31.9171 10.7252 32.4643 12.0663 32.8031 13.2941C32.8159 13.3227 32.8167 13.3638 32.8065 13.4066C32.8022 13.4432 32.7744 13.4818 32.7301 13.5118C32.6828 13.5448 32.6422 13.5548 32.623 13.5264C32.1708 12.936 29.588 10.6392 30.5449 9.94541Z" fill="#3A3B7B"/>
<path d="M8.69524 24.6285C8.94253 24.4518 9.21137 24.3047 9.49586 24.1905C9.7935 24.1089 10.1107 24.1224 10.3997 24.2291C10.6885 24.3359 10.9334 24.53 11.0971 24.7822C11.2435 25.0337 11.3008 25.3241 11.2604 25.6096C11.2199 25.8951 11.084 26.1602 10.8729 26.3651C10.7093 26.5312 10.5235 26.6759 10.3205 26.7954C9.41582 27.3564 8.50308 27.8866 7.59039 28.4475C7.40363 28.5879 7.20551 28.7139 6.99793 28.8241C6.68217 28.9752 6.32132 29.0157 5.97776 28.9385C5.6342 28.8614 5.32955 28.6713 5.11648 28.4014C4.95719 28.2103 4.82277 28.0013 4.71616 27.779C3.8515 26.0347 2.95481 24.2981 2.12217 22.523C1.73787 21.7546 1.42563 20.8709 1.12139 20.018C0.989767 19.7702 0.964063 19.4829 1.04976 19.2171C1.13545 18.9514 1.32577 18.7282 1.58025 18.5951C1.83473 18.462 2.13327 18.4294 2.4124 18.5043C2.69152 18.5791 2.92921 18.7556 3.0749 18.996C3.52271 19.5672 3.91911 20.1739 4.25981 20.8095C5.12448 22.3463 5.94912 23.8831 6.78176 25.3738C6.83024 25.4562 6.8837 25.5357 6.94188 25.612C7.56859 25.3591 8.15803 25.0285 8.69524 24.6285Z" fill="#3A3B7B"/>
<path d="M17.6362 24.0924C15.6587 26.313 12.3441 25.7521 10.6789 22.8936C9.49393 20.865 9.28579 17.5147 11.8638 15.4016C12.4143 14.9592 13.0726 14.6578 13.7772 14.5256C14.6412 14.4067 15.5223 14.553 16.2944 14.9435C17.0666 15.3341 17.6903 15.9489 18.0766 16.7002C19.4857 19.1591 19.2855 22.2942 17.6362 24.0924ZM16.8356 18.9132C16.6255 18.309 16.2041 17.7931 15.6427 17.4532C15.325 17.2359 14.939 17.1302 14.5497 17.154C14.1604 17.1778 13.7915 17.3296 13.505 17.5838C12.3602 18.5597 12.12 20.8727 12.9526 22.2481C13.0587 22.4724 13.2146 22.6717 13.4094 22.8322C13.6041 22.9926 13.8331 23.1102 14.0802 23.1768C14.3273 23.2434 14.5865 23.2574 14.8398 23.2178C15.0932 23.1781 15.3344 23.0859 15.5467 22.9474C16.1673 22.4856 16.6226 21.8497 16.8492 21.1281C17.076 20.4065 17.0628 19.635 16.8116 18.9209L16.8356 18.9132Z" fill="#3A3B7B"/>
<path d="M25.706 19.8815C25.5036 19.9233 25.2944 19.9258 25.0909 19.8888C24.8875 19.8518 24.6937 19.7762 24.5212 19.6663C24.3702 19.5834 24.2402 19.4695 24.1405 19.3326C24.041 19.1957 23.9742 19.0394 23.9451 18.8747C23.916 18.7101 23.9253 18.5414 23.9723 18.3807C24.0193 18.2199 24.1029 18.0712 24.2169 17.9451C24.4157 17.6917 24.6978 17.5103 25.0175 17.4303C25.8523 17.1977 26.7117 17.056 27.5795 17.0076C27.7702 16.9864 27.9634 17.0018 28.1477 17.0532C28.332 17.1046 28.5038 17.1907 28.653 17.3067C28.8021 17.4227 28.9257 17.5661 29.0163 17.7285C29.1069 17.8909 29.1628 18.069 29.1807 18.2525C29.4309 19.1534 29.4583 20.0981 29.2608 21.0111C28.5403 23.9618 26.0583 24.9761 23.2722 24.0309C22.4901 23.7782 21.8044 23.3074 21.3027 22.6785C20.6335 21.9212 20.1591 21.0237 19.9176 20.0582C19.7219 19.1985 19.7433 18.3063 19.9801 17.4562C20.2169 16.606 20.6621 15.8225 21.2786 15.1711C21.8637 14.4631 22.6231 13.906 23.4884 13.5498C24.0351 13.2605 24.6749 13.1783 25.2818 13.3192C25.4194 13.3558 25.5443 13.4271 25.6436 13.5256C25.743 13.6241 25.813 13.7464 25.8465 13.8797C25.88 14.0129 25.8757 14.1524 25.8341 14.2835C25.7925 14.4147 25.7152 14.5328 25.61 14.6255C25.4101 14.7992 25.1929 14.9537 24.9615 15.0866C24.2497 15.5216 23.6303 16.0822 23.1361 16.7387C22.8121 17.1635 22.589 17.6512 22.4825 18.1676C22.3759 18.684 22.3886 19.2166 22.5196 19.7278C22.7012 20.4249 23.1041 21.0506 23.6725 21.5182C25.4338 23.0551 27.7236 21.572 27.3233 19.4742C26.7389 19.6126 26.2265 19.7586 25.706 19.8815Z" fill="#3A3B7B"/>
<path d="M36.4656 24.2151C33.8637 25.7519 30.9014 24.2151 30.2528 20.9878C29.7805 18.6825 30.6772 15.4552 33.8156 14.2257C34.4834 13.9698 35.2077 13.8799 35.9212 13.9645C36.7786 14.1151 37.5651 14.5202 38.1698 15.1226C38.7745 15.7251 39.167 16.4945 39.2918 17.3224C39.8202 20.0656 38.6193 22.9933 36.4656 24.2151ZM37.3704 19.0437C37.3696 18.4053 37.1343 17.7876 36.7059 17.2994C36.4769 16.9974 36.1458 16.781 35.7691 16.6871C35.3924 16.5932 34.9935 16.6276 34.6402 16.7846C33.2312 17.3685 32.2384 19.4893 32.5987 21.0493C32.6262 21.2941 32.7091 21.5301 32.8415 21.741C32.974 21.9518 33.1529 22.1324 33.3657 22.27C33.5784 22.4075 33.8199 22.4989 34.0732 22.5376C34.3266 22.5762 34.5857 22.5613 34.8324 22.4939C35.5772 22.2441 36.2221 21.7774 36.6771 21.1589C37.1321 20.5403 37.3745 19.8008 37.3704 19.0437Z" fill="#3A3B7B"/>
<path d="M41.9227 24.8609C41.8834 25.1421 41.7294 25.3969 41.4944 25.5691C41.2594 25.7413 40.9627 25.8169 40.6697 25.7792C40.3767 25.7415 40.1113 25.5936 39.9319 25.368C39.7524 25.1425 39.6737 24.8578 39.713 24.5766C39.7523 24.2953 39.9064 24.0406 40.1413 23.8684C40.3763 23.6962 40.673 23.6206 40.966 23.6583C41.259 23.696 41.5244 23.8439 41.7039 24.0694C41.8833 24.295 41.962 24.5797 41.9227 24.8609ZM41.2261 14.495C41.3784 14.2718 41.6018 14.1018 41.863 14.0104C42.1241 13.919 42.4091 13.9111 42.6753 13.9878C42.9459 14.0528 43.185 14.2051 43.3527 14.4191C43.5203 14.6331 43.6062 14.8959 43.596 15.1635C43.5607 15.5927 43.4938 16.0189 43.3959 16.4391C43.1317 17.8606 42.8754 19.2822 42.5953 20.6884C42.4671 21.2494 42.299 21.7872 42.1148 22.3558C42.0508 22.5336 41.9438 22.6942 41.8026 22.8246C41.7149 22.9227 41.6028 22.9979 41.4767 23.0433C41.3506 23.0888 41.2147 23.1029 41.0814 23.0845C40.9481 23.0661 40.8217 23.0158 40.7141 22.9381C40.6065 22.8604 40.521 22.758 40.4656 22.6402C40.3704 22.4289 40.3187 22.2018 40.3135 21.9717C40.3135 21.0188 40.3135 20.0583 40.3775 19.0978C40.4864 17.727 40.7004 16.3657 41.018 15.0252C41.0554 14.8456 41.1258 14.6738 41.2261 14.518V14.495Z" fill="#3A3B7B"/>
<path fill-rule="evenodd" clip-rule="evenodd" d="M5.31337 31.0356C5.21884 31.2382 5.19291 31.464 5.23911 31.6813C5.26984 31.9677 5.33734 32.2495 5.44006 32.5201C5.56832 32.8515 5.71184 33.1792 5.8888 33.5831C5.9295 33.676 5.97202 33.773 6.01653 33.8751C6.25516 34.4223 6.5546 35.1216 6.95399 36.1336C7.06704 36.4211 7.16743 36.711 7.26852 37.0028C7.30935 37.1207 7.35034 37.2391 7.39229 37.3576C7.54266 37.7792 7.8014 38.1579 8.14437 38.458C8.29 38.623 8.48317 38.7432 8.69978 38.8033C8.92061 38.8646 9.15547 38.8607 9.37396 38.7922C9.59244 38.7236 9.78433 38.5935 9.92473 38.4188C10.0624 38.2475 10.1442 38.041 10.1601 37.8254C10.2494 37.4053 10.219 36.9697 10.0718 36.5647C9.83818 35.8922 9.5721 35.2187 9.26525 34.56L9.26384 34.5571C8.75906 33.5266 8.24596 32.5032 7.70857 31.4793L7.70455 31.4721C7.54724 31.2054 7.34279 30.9669 7.10041 30.7675C6.94305 30.5895 6.726 30.4694 6.4863 30.428C6.24149 30.3858 5.989 30.4283 5.77392 30.5482C5.57045 30.6597 5.40916 30.8304 5.31337 31.0356Z" fill="#3A3B7B"/>
<path fill-rule="evenodd" clip-rule="evenodd" d="M13.0233 28.498C12.2319 28.3013 11.4053 28.2726 10.6012 28.414C9.97834 28.4729 9.3658 28.6108 8.94045 28.8839C8.72411 29.0229 8.54921 29.2014 8.45192 29.4282C8.35409 29.6564 8.3416 29.9172 8.42177 30.2079C8.56814 30.7403 8.75822 31.2579 8.94763 31.7739L8.97832 31.8575L8.97906 31.8594C9.54937 33.3584 10.1251 34.8524 10.7061 36.3412C10.7739 36.5758 10.8697 36.8022 10.9916 37.0156L10.9939 37.0196C11.155 37.2848 11.3616 37.522 11.6049 37.7213C11.7267 37.8308 11.8772 37.9066 12.0404 37.9405C12.2053 37.9746 12.3767 37.9647 12.536 37.9117C12.6954 37.8588 12.8365 37.7649 12.9441 37.6402C13.0499 37.5175 13.1192 37.3698 13.1447 37.2125C13.2497 36.7853 13.216 36.3374 13.0482 35.9291C12.9958 35.7916 12.9547 35.6512 12.9114 35.5033C12.897 35.454 12.8823 35.4039 12.8669 35.3528C14.1968 34.8539 15.6118 34.183 16.1094 32.6223C16.3043 32.0829 16.3205 31.4989 16.1559 30.9503C15.9911 30.4011 15.6531 29.9143 15.1883 29.5569C14.5557 29.0566 13.8168 28.6952 13.0233 28.498ZM10.8294 30.4123C10.8556 30.4051 10.882 30.3984 10.9085 30.3921C11.7743 30.2615 12.6601 30.4355 13.4028 30.8821C13.7302 31.1006 13.8642 31.3434 13.8873 31.5769C13.911 31.8174 13.8199 32.0781 13.6369 32.3286C13.291 32.8018 12.6599 33.1806 12.0898 33.2512C11.6742 32.3325 11.2521 31.3767 10.8294 30.4123Z" fill="#3A3B7B"/>
<path d="M18.2998 26.8163C19.2424 26.3985 20.4099 26.3263 21.3235 26.6201C21.5536 26.6844 21.7533 26.8236 21.8883 27.0137C22.0224 27.2027 22.0843 27.4304 22.0637 27.658C22.0623 27.8058 22.0245 27.9512 21.9534 28.0824C21.881 28.2159 21.7762 28.3307 21.6478 28.4172C21.5195 28.5036 21.3713 28.5591 21.2158 28.579C21.0603 28.5989 20.9022 28.5825 20.7547 28.5313L20.7435 28.5274L20.733 28.5221C20.6575 28.4842 20.5773 28.4557 20.4944 28.4371L20.4892 28.436C19.8465 28.2721 19.2402 28.5436 19.0188 28.8772C18.9132 29.0362 18.9001 29.1967 18.988 29.3428C19.0822 29.4992 19.3133 29.6747 19.7808 29.7998C19.9094 29.8337 20.0412 29.8664 20.1749 29.8996C20.5446 29.9915 20.9287 30.0869 21.3002 30.2192L21.3017 30.2197C23.0155 30.8456 23.6537 32.1418 23.4353 33.361C23.2191 34.5667 22.17 35.6639 20.5924 35.9228C20.0183 36.0449 19.4209 36.0211 18.8592 35.8538C18.2961 35.6859 17.7886 35.3796 17.387 34.9652L17.3766 34.9544C17.2498 34.7982 17.1645 34.6148 17.1267 34.4202C17.0919 34.2445 17.1103 34.063 17.1794 33.897C17.2482 33.7319 17.3645 33.5891 17.5145 33.4851C17.6731 33.3671 17.8641 33.2963 18.0642 33.2815C18.2635 33.2668 18.463 33.3084 18.638 33.4011C18.8129 33.4822 18.9755 33.5856 19.1215 33.7086L19.1242 33.7108C19.3824 33.9375 19.6949 33.9965 19.9945 33.9418C20.2984 33.8863 20.5842 33.7137 20.7681 33.4847C20.9507 33.2571 21.024 32.9867 20.937 32.7243C20.8494 32.4599 20.5862 32.1637 20.0077 31.9161C19.8565 31.8545 19.6998 31.8048 19.5367 31.7564C19.4927 31.7433 19.448 31.7304 19.4027 31.7172C19.2821 31.682 19.1581 31.6459 19.0364 31.606C18.9526 31.5786 18.8695 31.5526 18.7872 31.5268C18.5622 31.4565 18.3428 31.388 18.1317 31.296C17.6722 31.1459 17.2753 30.8576 16.9999 30.4738C16.7235 30.0885 16.5843 29.6277 16.6033 29.1603C16.6047 28.0212 17.3522 27.2364 18.2998 26.8163Z" fill="#3A3B7B"/>
<path d="M30.2479 26.695C30.0651 26.6094 29.863 26.5687 29.6599 26.5767C29.4566 26.5847 29.2587 26.6411 29.0839 26.741C28.9102 26.8401 28.7648 26.9789 28.6606 27.1451C28.565 27.285 28.4989 27.4415 28.4659 27.6058C28.433 27.7699 28.4338 27.9387 28.4682 28.1025C28.5023 28.313 28.54 28.5177 28.5773 28.7196C28.639 29.0537 28.699 29.3802 28.7386 29.7132L28.7401 29.7217C28.8302 30.2438 28.8774 30.772 28.8817 31.3012L28.8821 31.3087C28.9129 31.8803 28.71 32.4407 28.3169 32.8711L28.3106 32.8788C28.1827 33.0361 28.0117 33.1562 27.8167 33.2256C27.6217 33.295 27.4104 33.3109 27.2065 33.2716C27.0026 33.2324 26.8141 33.1394 26.6621 33.0032C26.5101 32.867 26.4005 32.6923 26.3458 32.4998C26.2289 32.094 26.1613 31.6766 26.1441 31.2559L26.3437 28.2068C26.3466 28.167 26.35 28.1261 26.3534 28.0849C26.361 27.9923 26.3688 27.8979 26.372 27.81C26.3767 27.6805 26.3727 27.5474 26.3413 27.4214C26.3091 27.2926 26.2479 27.17 26.1394 27.0657C26.032 26.9624 25.887 26.8862 25.7045 26.8344C25.3745 26.7427 25.0954 26.7456 24.8629 26.8403C24.6303 26.935 24.4709 27.1109 24.3581 27.314C24.2461 27.5154 24.1742 27.7539 24.1198 27.9927C24.0795 28.17 24.0471 28.356 24.0162 28.5331C24.0056 28.5941 23.9952 28.6541 23.9846 28.7123L23.9843 28.714C23.8194 29.6852 23.7704 30.6713 23.838 31.6532C23.8507 32.1839 23.9659 32.7077 24.1781 33.1978C24.4175 33.8303 24.851 34.3783 25.4215 34.7694C25.9933 35.1614 26.6755 35.3774 27.3779 35.3888C28.0804 35.4002 28.7699 35.2065 29.3551 34.8334C29.9394 34.4608 30.3922 33.9268 30.6536 33.302C31.0194 32.5062 31.1911 31.6407 31.1557 30.7715C31.1342 30.1369 31.0982 29.4974 31.0624 28.8612C31.0448 28.5491 31.0273 28.2377 31.0116 27.9282C31.0037 27.6178 30.897 27.3172 30.7059 27.0667C30.5877 26.9083 30.4303 26.7806 30.2479 26.695Z" fill="#3A3B7B"/>
<path d="M36.7175 31.4763C36.699 31.4989 36.6794 31.5223 36.659 31.5466C36.5104 30.7235 36.3726 29.9007 36.2346 29.0766C36.1851 28.781 36.1354 28.4841 36.0853 28.188L36.0797 28.155L36.0614 28.1264C36.027 28.0727 36.0236 28.0201 36.0236 27.9077V27.8948L36.0215 27.8819C35.9842 27.65 35.8748 27.4341 35.7079 27.2626C35.5413 27.0916 35.3251 26.9726 35.0872 26.9209C34.8497 26.8647 34.6001 26.8771 34.3699 26.9565C34.1403 27.0358 33.9401 27.1783 33.7944 27.3662C33.6733 27.5103 33.574 27.6702 33.4996 27.841C33.3307 28.2091 33.1604 28.578 32.9896 28.948L32.9866 28.9544C32.5602 29.878 32.1309 30.8077 31.7141 31.7448L31.7128 31.7479C31.4569 32.3555 31.2457 32.9957 31.0352 33.634C30.9932 33.7614 30.9511 33.8887 30.9088 34.0157C30.8328 34.2172 30.7995 34.4311 30.8109 34.645C30.7971 34.8364 30.8448 35.0274 30.9478 35.1921C31.0528 35.3602 31.2102 35.4924 31.3976 35.5703C31.5962 35.6538 31.8182 35.6716 32.0286 35.6207C32.2385 35.5699 32.4248 35.4536 32.5584 35.2902C32.7289 35.0888 32.8756 34.8692 32.9953 34.6365C33.3484 33.9433 33.6859 33.2416 34.0218 32.543C34.1518 32.2728 34.2781 32.0308 34.4217 31.7672C34.4316 31.7997 34.4417 31.8314 34.4521 31.8631C34.6027 32.4995 34.8569 33.109 35.2053 33.6694C35.2712 33.7881 35.3631 33.8918 35.4745 33.9735C35.5873 34.0561 35.7175 34.1141 35.856 34.1436C35.9946 34.1731 36.1381 34.1732 36.2767 34.144C36.4151 34.1149 36.5457 34.0568 36.6585 33.9745L36.8819 33.8141L38.6158 32.4124L38.5132 33.0395C38.3725 33.9015 38.2328 34.7564 38.0844 35.6114C37.9874 35.9904 37.9875 36.3862 38.0849 36.7651C38.127 36.9783 38.2344 37.1746 38.3934 37.3289C38.5538 37.4845 38.7591 37.5902 38.9828 37.6324C39.2065 37.6745 39.4383 37.6512 39.648 37.5653C39.8547 37.4808 40.0305 37.3393 40.1533 37.1591C40.4392 36.8187 40.6171 36.4065 40.666 35.9717C40.7396 35.3577 40.8227 34.7353 40.9059 34.1131C41.0017 33.396 41.0976 32.679 41.1785 31.9758L41.1787 31.9737C41.2566 31.2039 41.2943 30.431 41.2917 29.6576C41.3087 29.4132 41.2453 29.1698 41.1102 28.9617C40.9747 28.7529 40.7739 28.5906 40.5366 28.4977C40.2898 28.39 40.0135 28.3612 39.7484 28.4156C39.485 28.4697 39.2466 28.603 39.0677 28.796C38.7479 29.0799 38.4479 29.3836 38.1696 29.7053L38.1677 29.7075C37.8639 30.0709 37.5621 30.4414 37.2624 30.8095C37.0801 31.0332 36.8983 31.2565 36.7175 31.4763Z" fill="#3A3B7B"/>
</g>
<defs>
<clipPath id="clip0_80_1369">
<rect width="47" height="29" fill="white" transform="translate(1 9.84668)"/>
</clipPath>
</defs>
</svg>
