<svg width="32" height="33" viewBox="0 0 32 33" fill="none" xmlns="http://www.w3.org/2000/svg">
<path opacity="0.1" fill-rule="evenodd" clip-rule="evenodd" d="M0 16.6719C0 7.83532 7.16344 0.671875 16 0.671875C24.8366 0.671875 32 7.83532 32 16.6719C32 25.5084 24.8366 32.6719 16 32.6719C7.16344 32.6719 0 25.5084 0 16.6719Z" fill="white"/>
<path fill-rule="evenodd" clip-rule="evenodd" d="M22.6679 11.1714C23.4022 11.3729 23.9805 11.9667 24.1768 12.7207C24.5335 14.0872 24.5335 16.9385 24.5335 16.9385C24.5335 16.9385 24.5335 19.7897 24.1768 21.1564C23.9805 21.9104 23.4022 22.5041 22.6679 22.7057C21.3371 23.0718 16.0001 23.0718 16.0001 23.0718C16.0001 23.0718 10.6632 23.0718 9.3323 22.7057C8.59795 22.5041 8.01962 21.9104 7.82335 21.1564C7.4668 19.7897 7.4668 16.9385 7.4668 16.9385C7.4668 16.9385 7.4668 14.0872 7.82335 12.7207C8.01962 11.9667 8.59795 11.3729 9.3323 11.1714C10.6632 10.8052 16.0001 10.8052 16.0001 10.8052C16.0001 10.8052 21.3371 10.8052 22.6679 11.1714ZM14.4001 14.5385V19.8718L18.6668 17.2052L14.4001 14.5385Z" fill="white"/>
</svg>
