<svg width="32" height="33" viewBox="0 0 32 33" fill="none" xmlns="http://www.w3.org/2000/svg">
<path opacity="0.1" fill-rule="evenodd" clip-rule="evenodd" d="M0 16.6719C0 7.83532 7.16344 0.671875 16 0.671875C24.8366 0.671875 32 7.83532 32 16.6719C32 25.5084 24.8366 32.6719 16 32.6719C7.16344 32.6719 0 25.5084 0 16.6719Z" fill="white"/>
<path fill-rule="evenodd" clip-rule="evenodd" d="M24.5335 16.6599C24.5335 17.237 24.4747 17.8133 24.3593 18.3751C24.2468 18.9235 24.0801 19.4619 23.8618 19.9766C23.6485 20.4822 23.3839 20.9694 23.0747 21.4237C22.7701 21.8752 22.4192 22.2988 22.0338 22.6849C21.6475 23.0693 21.2225 23.4192 20.7712 23.7251C20.3154 24.0322 19.8275 24.2964 19.3216 24.5107C18.8061 24.7279 18.2665 24.8943 17.7186 25.0066C17.1561 25.1223 16.5777 25.1814 15.9997 25.1814C15.4214 25.1814 14.843 25.1223 14.2813 25.0066C13.7326 24.8943 13.1929 24.7279 12.6779 24.5107C12.1721 24.2964 11.6837 24.0322 11.2278 23.7251C10.7766 23.4193 10.3516 23.0693 9.96611 22.6849C9.58027 22.2988 9.2294 21.8752 8.92439 21.4237C8.61687 20.9694 8.35184 20.4821 8.13768 19.9766C7.9193 19.4619 7.75224 18.9234 7.63931 18.3751C7.52515 17.8133 7.4668 17.237 7.4668 16.6599C7.4668 16.0824 7.52511 15.5049 7.63934 14.9444C7.75227 14.396 7.91934 13.8567 8.13771 13.3429C8.35187 12.8369 8.6169 12.3493 8.92442 11.8949C9.22943 11.443 9.5803 11.0203 9.96614 10.6337C10.3516 10.2492 10.7766 9.90015 11.2279 9.59475C11.6837 9.28641 12.1721 9.02223 12.6779 8.8075C13.193 8.58985 13.7326 8.42302 14.2814 8.31153C14.8431 8.19669 15.4214 8.13843 15.9998 8.13843C16.5777 8.13843 17.1561 8.19669 17.7186 8.31153C18.2665 8.42305 18.8061 8.58988 19.3216 8.8075C19.8275 9.02219 20.3154 9.28641 20.7713 9.59475C21.2225 9.90015 21.6476 10.2492 22.0338 10.6337C22.4193 11.0203 22.7701 11.443 23.0747 11.8949C23.3839 12.3493 23.6485 12.8369 23.8618 13.3429C24.0801 13.8567 24.2468 14.396 24.3593 14.9444C24.4747 15.5049 24.5335 16.0824 24.5335 16.6599ZM12.8904 10.0778C10.8582 11.0361 9.34143 12.906 8.86848 15.1595C9.0606 15.1612 12.0974 15.1995 15.5963 14.2711C14.335 12.0334 12.9875 10.2072 12.8904 10.0778ZM16.2001 15.3917C12.4479 16.5134 8.84724 16.4327 8.71808 16.4278C8.71597 16.506 8.71223 16.5817 8.71223 16.6599C8.71223 18.5294 9.41851 20.2337 10.5794 21.5223C10.5769 21.5186 12.5712 17.9856 16.5039 16.7157C16.5989 16.6841 16.6956 16.6558 16.7914 16.6283C16.6085 16.2147 16.4089 15.8003 16.2001 15.3917ZM20.8125 11.1983C19.5295 10.0686 17.8448 9.38339 15.9997 9.38339C15.4076 9.38339 14.833 9.45496 14.2825 9.58727C14.3917 9.73375 15.7605 11.547 17.0068 13.8322C19.7566 12.8028 20.7945 11.225 20.8125 11.1983ZM17.2882 17.8341C17.2719 17.8395 17.2557 17.8441 17.2398 17.8499C12.9401 19.3467 11.536 22.3632 11.5208 22.3961C12.7579 23.3568 14.3097 23.9365 15.9998 23.9365C17.009 23.9365 17.9703 23.7313 18.8449 23.3598C18.737 22.724 18.3136 20.4954 17.2882 17.8341ZM20.072 22.6949C21.7083 21.5922 22.8705 19.8414 23.1946 17.8133C23.0446 17.765 21.0058 17.1205 18.6536 17.4971C19.6095 20.1201 19.9978 22.2563 20.072 22.6949ZM17.5678 14.9165C17.7369 15.2635 17.9007 15.6167 18.0519 15.9717C18.1057 16.099 18.1582 16.2239 18.2095 16.3487C20.7129 16.0341 23.1793 16.5634 23.2847 16.585C23.2681 14.8599 22.6501 13.2767 21.6276 12.0372C21.6138 12.0567 20.445 13.7431 17.5678 14.9165Z" fill="white"/>
</svg>
