<svg width="65" height="56" viewBox="0 0 65 56" fill="none" xmlns="http://www.w3.org/2000/svg">
<path d="M65 38C65 47.9411 56.9411 56 47 56L20 56C17.2386 56 15 53.7614 15 51L15 17C15 11.4772 19.4772 7 25 7L60 7C62.7614 7 65 9.23858 65 12L65 38Z" fill="#E8F5E9"/>
<path d="M28.3126 23.6446C28.0718 23.6446 27.8483 23.5784 27.6497 23.4719V23.4748C27.6497 23.8536 27.5024 24.2094 27.2352 24.4758C26.9681 24.743 26.6126 24.8903 26.2342 24.8903C25.9899 24.8903 25.7634 24.8224 25.5627 24.7131C25.5424 25.0597 25.4039 25.3836 25.1568 25.631C24.8896 25.8982 24.5341 26.0454 24.1555 26.0454C23.4032 26.0454 22.7923 25.4541 22.7482 24.7129C22.5155 24.8387 22.2523 24.9046 21.9809 24.8872C21.2408 24.8387 20.6613 24.1993 20.6613 23.4312V17.0645L19.9363 18.3205C19.6602 18.8009 19.1433 19.0991 18.5868 19.0991C18.3156 19.0991 18.0478 19.028 17.8105 18.892C17.5151 18.7208 17.3038 18.4458 17.2159 18.1169C17.1275 17.7878 17.1732 17.4436 17.344 17.1486C17.3443 17.1486 19.716 13.0414 19.8607 12.7891C19.8779 12.7512 19.9269 12.6411 19.9686 12.5474C20.0084 12.4578 20.0426 12.366 20.0753 12.2736C20.7906 10.2543 22.5616 8.99998 24.6976 8.99998C27.4712 8.99998 29.7278 11.4469 29.7278 14.4546L29.728 22.2289C29.728 22.6073 29.581 22.9628 29.3141 23.2302C29.0469 23.4974 28.6914 23.6447 28.3126 23.6447L28.3126 23.6446ZM24.6976 9.75212C22.8623 9.75212 21.3994 10.7888 20.7843 12.5251C20.7449 12.6354 20.704 12.7457 20.6561 12.8531C20.5174 13.1643 20.5174 13.1643 20.4783 13.2091L20.4731 13.2046C20.2794 13.57 19.7041 14.5663 17.9953 17.525C17.9251 17.6463 17.9065 17.7872 17.9423 17.922C17.9786 18.0567 18.0655 18.1703 18.1859 18.2398C18.5595 18.4544 19.0713 18.3159 19.2842 17.9448L20.7117 15.4734C20.797 15.3261 20.9695 15.2538 21.1349 15.2986C21.2993 15.3426 21.4136 15.4918 21.4136 15.6619V23.4314C21.4136 23.798 21.6902 24.1144 22.0302 24.1368C22.2262 24.1471 22.409 24.0814 22.5464 23.9443C22.6712 23.8194 22.74 23.6531 22.74 23.4752V18.3938C22.74 18.186 22.9085 18.0176 23.1163 18.0176C23.3241 18.0176 23.4925 18.1858 23.4925 18.3938L23.4923 24.6302C23.4923 24.9958 23.7898 25.2934 24.1555 25.2934C24.3331 25.2934 24.4999 25.2246 24.625 25.0997C24.7499 24.9746 24.8187 24.8078 24.8187 24.6302V18.3938C24.8187 18.186 24.9869 18.0176 25.1949 18.0176C25.4027 18.0176 25.5712 18.1858 25.5712 18.3938L25.571 23.4168V23.4752C25.571 23.8406 25.8685 24.1381 26.2344 24.1381C26.4118 24.1381 26.5781 24.0691 26.704 23.9438C26.8288 23.8191 26.8976 23.6528 26.8976 23.4749V18.3936C26.8976 18.1858 27.0658 18.0173 27.2739 18.0173C27.4817 18.0173 27.6501 18.1855 27.6501 18.3936L27.6496 22.2291C27.6496 22.595 27.9472 22.8925 28.3126 22.8925C28.4905 22.8925 28.6568 22.8235 28.7817 22.6989C28.907 22.5736 28.9756 22.4067 28.9756 22.2291L28.9758 14.4548C28.9758 11.862 27.0566 9.7522 24.6976 9.7522L24.6976 9.75212Z" fill="#103E13"/>
<path d="M13.5297 29.048L18.9894 25.7727C19.6477 25.3774 20.4947 25.5454 20.9169 26.1553C21.0709 26.3775 21.1496 26.6364 21.1619 26.9001C21.3654 26.7938 21.5869 26.7361 21.8124 26.7361C21.9278 26.7361 22.0437 26.7505 22.1582 26.779C22.525 26.8706 22.8341 27.0999 23.0285 27.424C23.2231 27.7487 23.2799 28.1291 23.1883 28.4955C23.1037 28.8346 22.8975 29.1199 22.6108 29.3157C22.8113 29.4339 22.9842 29.5953 23.1072 29.8008C23.3018 30.1254 23.3586 30.5057 23.2672 30.8725C23.1755 31.2389 22.9463 31.548 22.6217 31.7429L22.6198 31.744C22.8167 31.8621 22.9866 32.0218 23.1082 32.2242C23.303 32.5488 23.3598 32.9293 23.2681 33.2961C23.1763 33.6627 22.947 33.9718 22.6228 34.1664L15.9564 38.1657C14.7122 38.9119 13.2739 39.1694 11.907 38.8902C10.5278 38.6084 9.38558 37.8157 8.69107 36.6579C7.59199 34.8261 7.7567 32.6619 9.1201 31.0101C9.18254 30.9347 9.24402 30.8579 9.29986 30.7783C9.359 30.6942 9.42803 30.5952 9.45159 30.5613C9.59271 30.3092 11.8955 26.1603 11.8952 26.1608C12.1278 25.7412 12.5636 25.5037 13.0131 25.5039C13.2228 25.5039 13.4356 25.5555 13.6318 25.6644C13.8688 25.7968 14.0679 25.9898 14.2072 26.2223C14.4934 26.6994 14.5035 27.2964 14.234 27.7796L13.5297 29.048ZM13.5625 26.6091C13.4894 26.4873 13.3891 26.3902 13.2663 26.3214C13.0126 26.181 12.6931 26.2724 12.5534 26.5252C10.9057 29.4937 10.344 30.5054 10.1272 30.8654L10.1321 30.8666C10.114 30.9269 10.114 30.9269 9.91563 31.2103C9.84825 31.3062 9.77498 31.3983 9.7003 31.489C8.52793 32.9094 8.3918 34.6969 9.33582 36.2709C9.92058 37.2458 10.887 37.9142 12.0572 38.1531C13.2401 38.3937 14.4869 38.1699 15.5691 37.5206L22.2361 33.5211C22.3883 33.4299 22.4957 33.285 22.5386 33.1133C22.5814 32.9417 22.5548 32.7634 22.4634 32.6112C22.2754 32.2979 21.8671 32.1949 21.5538 32.3836L18.2648 34.3568C18.0867 34.4637 17.8554 34.4062 17.7486 34.2279C17.6417 34.0498 17.6994 33.8187 17.8775 33.7117L21.1667 31.7386L22.2349 31.0977C22.3871 31.0063 22.4948 30.8614 22.5376 30.6901C22.5805 30.5184 22.5539 30.3398 22.4625 30.1878C22.2742 29.8743 21.8659 29.7723 21.5528 29.9603L17.1955 32.5742C17.0169 32.6814 16.7862 32.6235 16.6793 32.4454C16.5723 32.2673 16.6303 32.0361 16.8081 31.9292L22.156 28.7211C22.3082 28.6296 22.4156 28.485 22.4585 28.3132C22.5014 28.1417 22.4747 27.9634 22.3836 27.8112C22.2924 27.6592 22.1475 27.5518 21.9757 27.5089C21.803 27.466 21.6254 27.4927 21.4737 27.5836L20.4837 28.1775C20.4835 28.1775 20.4835 28.1778 20.4832 28.1778H20.483L16.1259 30.7917C15.9473 30.8992 15.7164 30.8412 15.6097 30.6629C15.5027 30.4848 15.5607 30.2536 15.7385 30.1467L20.0959 27.5327C20.2481 27.4413 20.3558 27.2964 20.3987 27.1251C20.4458 26.9371 20.41 26.7449 20.2983 26.5837C20.1046 26.3036 19.6905 26.2291 19.3764 26.4179L12.7142 30.4146C12.5684 30.5017 12.3816 30.4805 12.2593 30.3625C12.1368 30.2442 12.1092 30.0583 12.1917 29.9097L13.577 27.4137C13.716 27.1642 13.7106 26.8561 13.5624 26.6092L13.5625 26.6091Z" fill="#103E13"/>
<path d="M39.6183 36.6576C38.924 37.8156 37.7821 38.6081 36.4027 38.8899C35.0355 39.1686 33.5977 38.9116 32.3532 38.1655L25.6862 34.166C25.3618 33.9714 25.1323 33.6623 25.0404 33.2952C24.9493 32.9288 25.0063 32.5483 25.2006 32.2241C25.322 32.0215 25.4921 31.8618 25.6893 31.7437L25.6874 31.7426C25.363 31.548 25.1335 31.2389 25.0421 30.8723C24.9502 30.5057 25.0072 30.1249 25.2018 29.8003C25.3272 29.5918 25.4989 29.4288 25.6949 29.3131C25.4103 29.1173 25.2054 28.8329 25.121 28.4956C25.0291 28.1287 25.0862 27.7482 25.2808 27.424C25.4751 27.0996 25.7845 26.8704 26.1511 26.7787C26.2656 26.75 26.3817 26.7359 26.4967 26.7359C26.7224 26.7361 26.9439 26.7933 27.1474 26.8998C27.1599 26.6362 27.2384 26.3773 27.3924 26.1551C27.8149 25.5456 28.6611 25.3769 29.3203 25.7725L34.7799 29.0473L34.0762 27.7798C33.8062 27.2958 33.8161 26.6988 34.1023 26.2215C34.2418 25.9892 34.4411 25.7963 34.6793 25.6627C34.8751 25.5543 35.0871 25.5029 35.2963 25.5029C35.7456 25.5032 36.1819 25.7402 36.4142 26.1598C37.2237 27.6184 38.7513 30.3692 38.8587 30.5613C38.8816 30.5945 38.9506 30.6934 39.0098 30.7776C39.0661 30.8574 39.1268 30.9338 39.1898 31.0096C40.5529 32.6621 40.7174 34.8261 39.6183 36.6576L39.6183 36.6576ZM38.6093 31.4891C38.5344 31.3984 38.4609 31.3058 38.394 31.2104C38.1904 30.9215 38.1852 30.914 38.1699 30.8384C37.932 30.4447 37.3515 29.3996 35.7558 26.5248C35.6158 26.2725 35.2978 26.1803 35.0445 26.3203C34.9199 26.39 34.8197 26.4873 34.7467 26.6091C34.5987 26.8558 34.5931 27.164 34.7328 27.4142L36.1177 29.9094C36.2003 30.0583 36.1728 30.244 36.0505 30.3622C35.9285 30.4807 35.7419 30.5015 35.5953 30.4143L28.9331 26.4176C28.6191 26.2293 28.2052 26.3031 28.011 26.5834C27.8993 26.7446 27.8638 26.9368 27.9104 27.1246C27.9533 27.2961 28.061 27.4408 28.2134 27.5322C28.2139 27.5324 28.2141 27.5329 28.2146 27.5331L32.5706 30.1464C32.7487 30.2533 32.8064 30.4842 32.6994 30.6626C32.5925 30.8405 32.3618 30.8986 32.1832 30.7914L26.8354 27.5833C26.6837 27.4924 26.5051 27.4655 26.3336 27.5087C26.1616 27.5515 26.0169 27.659 25.9258 27.8114C25.8343 27.9634 25.808 28.1417 25.8504 28.3132C25.8932 28.4847 26.0009 28.6296 26.1531 28.721L27.1938 29.3452L31.5007 31.9292C31.6788 32.0362 31.7365 32.2671 31.6296 32.4454C31.5226 32.6233 31.292 32.6812 31.1134 32.5743L26.7565 29.9603C26.4431 29.7718 26.0351 29.8741 25.8466 30.1879C25.7552 30.3401 25.7288 30.5184 25.7712 30.6899C25.8141 30.8615 25.9218 31.0061 26.0742 31.0978L27.1424 31.7386L30.4311 33.7117C30.6092 33.8187 30.6669 34.0496 30.56 34.2279C30.453 34.4058 30.2223 34.4642 30.0438 34.3568L26.7551 32.3837C26.6033 32.2927 26.4255 32.2659 26.253 32.309C26.0815 32.3519 25.9364 32.4593 25.8452 32.6112C25.754 32.7634 25.7274 32.942 25.7698 33.1133C25.8127 33.2848 25.9204 33.4295 26.0728 33.5211L32.7398 37.5206C33.8217 38.1697 35.0694 38.3944 36.2516 38.1532C37.4216 37.9143 38.388 37.2459 38.9728 36.271C39.9178 34.6967 39.7818 32.909 38.6097 31.4891L38.6093 31.4891Z" fill="#103E13"/>
</svg>
