<svg width="52" height="48" viewBox="0 0 52 48" fill="none" xmlns="http://www.w3.org/2000/svg">
<g clip-path="url(#clip0_80_1389)">
<path d="M12.3431 13.8467C10.3124 13.8467 8.36487 14.6534 6.92893 16.0893L2.24264 20.7756C0.8067 22.2115 0 24.1591 0 26.1898C0 30.4186 3.42809 33.8467 7.65687 33.8467C9.6876 33.8467 11.6351 33.0399 13.0711 31.604L16.3126 28.3625C16.3126 28.3624 16.3127 28.3625 16.3126 28.3625L25.7573 18.9177C26.4431 18.232 27.3733 17.8467 28.3431 17.8467C29.9669 17.8467 31.3435 18.905 31.8207 20.3694L34.8015 17.3887C33.4417 15.2589 31.0573 13.8467 28.3431 13.8467C26.3124 13.8467 24.3649 14.6534 22.9289 16.0893L10.2427 28.7756C9.55687 29.4614 8.62673 29.8467 7.65687 29.8467C5.63723 29.8467 4 28.2095 4 26.1898C4 25.2199 4.38527 24.2898 5.07107 23.604L9.75733 18.9177C10.4431 18.232 11.3733 17.8467 12.3431 17.8467C13.9669 17.8467 15.3435 18.905 15.8207 20.3695L18.8015 17.3887C17.4417 15.2589 15.0574 13.8467 12.3431 13.8467Z" fill="#394149"/>
<path d="M26.2431 28.7756C25.5573 29.4614 24.6272 29.8467 23.6573 29.8467C22.0338 29.8467 20.6573 28.7887 20.1799 27.3245L17.1992 30.3051C18.5591 32.4346 20.9433 33.8467 23.6573 33.8467C25.688 33.8467 27.6356 33.0399 29.0715 31.604L41.7577 18.9177C42.4436 18.232 43.3737 17.8467 44.3435 17.8467C46.3632 17.8467 48.0004 19.4839 48.0004 21.5035C48.0004 22.4734 47.6152 23.4035 46.9293 24.0893L42.2431 28.7756C41.5573 29.4614 40.6271 29.8467 39.6573 29.8467C38.0336 29.8467 36.6571 28.7885 36.1798 27.3241L33.1991 30.3049C34.5589 32.4345 36.9431 33.8467 39.6573 33.8467C41.688 33.8467 43.6355 33.0399 45.0715 31.604L49.7577 26.9177C51.1937 25.4818 52.0004 23.5343 52.0004 21.5035C52.0004 17.2748 48.5723 13.8467 44.3435 13.8467C42.3128 13.8467 40.3653 14.6534 38.9293 16.0893L26.2431 28.7756Z" fill="#394149"/>
</g>
<defs>
<clipPath id="clip0_80_1389">
<rect width="52" height="20" fill="white" transform="translate(0 13.8467)"/>
</clipPath>
</defs>
</svg>
