<svg width="48" height="48" viewBox="0 0 48 48" fill="none" xmlns="http://www.w3.org/2000/svg">
<g clip-path="url(#clip0_80_1385)">
<path d="M42.4375 11.6904C42.4375 12.1564 42.8199 12.5342 43.2917 12.5342H44.1458C44.6176 12.5342 45 12.1564 45 11.6904C45 11.2244 44.6176 10.8467 44.1458 10.8467H43.2917C42.8199 10.8467 42.4375 11.2244 42.4375 11.6904Z" fill="#212326"/>
<path d="M17.6667 37.8467H21.8161L20.6081 36.6534C20.2877 36.337 19.8532 36.1592 19.4001 36.1592H17.6667C11.0623 36.1592 5.70833 30.8706 5.70833 24.3467C5.70833 17.8228 11.0623 12.5342 17.6667 12.5342H31.3333C37.9378 12.5342 43.2917 17.8228 43.2917 24.3467C43.2917 30.8706 37.9378 36.1592 31.3333 36.1592H26.2209C25.5413 36.1592 24.8895 35.8925 24.4089 35.4178L22.9937 34.0198C22.1928 33.2287 21.1064 32.7842 19.9737 32.7842H17.6667C12.9492 32.7842 9.125 29.0066 9.125 24.3467C9.125 19.6867 12.9492 15.9092 17.6667 15.9092H31.3333C36.0508 15.9092 39.875 19.6867 39.875 24.3467C39.875 29.0066 36.0508 32.7842 31.3333 32.7842H28.0507C27.371 32.7842 26.7193 32.5175 26.2387 32.0428L24.8234 30.6448C24.0225 29.8537 22.9362 29.4092 21.8035 29.4092H17.6667C14.8362 29.4092 12.5417 27.1426 12.5417 24.3467C12.5417 21.5508 14.8362 19.2842 17.6667 19.2842H31.3333C34.1638 19.2842 36.4583 21.5508 36.4583 24.3467C36.4583 27.1085 34.2194 29.3538 31.4367 29.4082L31.4361 29.4092H30.1861C29.5064 29.4092 28.8547 29.1425 28.3741 28.6678L26.9588 27.2698C26.3017 26.6206 25.4524 26.2049 24.5429 26.0766L24.5 26.0342H17.6667C16.7232 26.0342 15.9583 25.2787 15.9583 24.3467C15.9583 23.4147 16.7232 22.6592 17.6667 22.6592H31.3333C32.2768 22.6592 33.0417 23.4147 33.0417 24.3467C33.0417 25.2787 32.2768 26.0342 31.3333 26.0342H27.9167L29.1247 27.2274C29.445 27.5439 29.8795 27.7217 30.3326 27.7217H31.3333C33.2203 27.7217 34.75 26.2106 34.75 24.3467C34.75 22.4827 33.2203 20.9717 31.3333 20.9717H17.6667C15.7797 20.9717 14.25 22.4827 14.25 24.3467C14.25 26.2106 15.7797 27.7217 17.6667 27.7217H23.9389C24.6186 27.7217 25.2703 27.9884 25.7509 28.463L27.1662 29.861C27.9671 30.6522 29.0534 31.0967 30.1861 31.0967H31.7604V31.0837C35.3354 30.866 38.1667 27.9329 38.1667 24.3467C38.1667 20.6188 35.1072 17.5967 31.3333 17.5967H17.6667C13.8928 17.5967 10.8333 20.6188 10.8333 24.3467C10.8333 28.0746 13.8928 31.0967 17.6667 31.0967H21.8035C22.4831 31.0967 23.1349 31.3634 23.6155 31.838L25.0307 33.236C25.8317 34.0272 26.918 34.4717 28.0507 34.4717H31.3333C36.9943 34.4717 41.5833 29.9386 41.5833 24.3467C41.5833 18.7548 36.9943 14.2217 31.3333 14.2217H17.6667C12.0057 14.2217 7.41667 18.7548 7.41667 24.3467C7.41667 29.9386 12.0057 34.4717 17.6667 34.4717H19.9737C20.6534 34.4717 21.3051 34.7384 21.7857 35.213L23.201 36.611C24.0019 37.4022 25.0882 37.8467 26.2209 37.8467H31.3333C38.8812 37.8467 45 31.8025 45 24.3467C45 16.8908 38.8812 10.8467 31.3333 10.8467L17.6667 10.8467C10.1188 10.8467 4 16.8908 4 24.3467C4 31.8025 10.1188 37.8467 17.6667 37.8467Z" fill="#212326"/>
</g>
<defs>
<clipPath id="clip0_80_1385">
<rect width="41" height="27" fill="white" transform="translate(4 10.8467)"/>
</clipPath>
</defs>
</svg>
