<svg width="48" height="48" viewBox="0 0 48 48" fill="none" xmlns="http://www.w3.org/2000/svg">
<g clip-path="url(#clip0_80_1362)">
<path fill-rule="evenodd" clip-rule="evenodd" d="M13.9858 13.9613L4 23.8467C5.99734 25.824 8.27899 27.4904 10.7666 28.7941C11.4542 30.5997 12.532 32.293 14 33.7462C19.5229 39.2135 28.4772 39.2135 34 33.7462C35.468 32.293 36.5458 30.5997 37.2334 28.794C39.721 27.4904 42.0027 25.824 44 23.8467L34.0223 13.9693C34.0149 13.9619 34.0075 13.9546 34 13.9472C28.4772 8.47985 19.5229 8.47985 14 13.9472C13.9953 13.9519 13.9905 13.9566 13.9858 13.9613ZM33.0445 30.5776C30.1345 31.5498 27.0797 32.0477 24 32.0477C20.9203 32.0477 17.8656 31.5498 14.9556 30.5776C15.2709 30.9917 15.619 31.3891 16 31.7663C20.4183 36.1402 27.5817 36.1402 32 31.7663C32.381 31.3891 32.7292 30.9917 33.0445 30.5776ZM16.2051 15.7291C16.9554 16.2198 17.7532 16.6397 18.588 16.982C20.3038 17.6856 22.1428 18.0477 24 18.0477C25.8572 18.0477 27.6962 17.6856 29.412 16.982C30.2468 16.6397 31.0446 16.2198 31.795 15.7291C27.4318 11.6192 20.5682 11.6192 16.2051 15.7291Z" fill="#3B4158"/>
</g>
<defs>
<clipPath id="clip0_80_1362">
<rect width="40" height="28" fill="white" transform="translate(4 9.84668)"/>
</clipPath>
</defs>
</svg>
