<svg width="191" height="30" viewBox="0 0 191 30" fill="none" xmlns="http://www.w3.org/2000/svg">
<path d="M23.2261 16.2378L16.5611 27.6526L9.89623 16.2378H23.2261ZM25.0116 15.2175H8.10352L16.5611 29.6716L25.0116 15.2175Z" fill="white"/>
<path d="M34.8131 2.0404L41.478 13.4552H28.1482L34.8131 2.0404ZM34.8131 0L26.3555 14.454H43.2707L34.8131 0Z" fill="white"/>
<path d="M0 0L7.09143 12.7846L14.8406 0.321025L0 0Z" fill="#4CAF4F"/>
<path d="M16.5603 1.11987L23.9987 13.8332H9.10742L16.5603 1.11987Z" fill="#4CAF4F"/>
<path d="M25.9151 16.6089L33.3607 29.6718H18.1152L25.6837 16.6089H25.9151Z" fill="#4CAF4F"/>
<path d="M27.5273 15.8169L34.8139 28.68L42.2017 15.8169H27.5273Z" fill="#4CAF4F"/>
<path d="M74.22 2.06348V27.2395H69.6224L58.6694 11.3938H58.485V27.2395H53.1621V2.06348H57.8334L68.7004 17.8968H68.9217V2.06348H74.22Z" fill="white"/>
<path d="M87.1245 27.6083C85.1823 27.6083 83.5104 27.2149 82.109 26.4282C80.7158 25.6332 79.6422 24.5105 78.8882 23.0599C78.1343 21.6011 77.7573 19.876 77.7573 17.8845C77.7573 15.9423 78.1343 14.2376 78.8882 12.7707C79.6422 11.3037 80.7035 10.1605 82.0721 9.34092C83.4489 8.52139 85.0634 8.11162 86.9156 8.11162C88.1613 8.11162 89.3209 8.31241 90.3945 8.71398C91.4763 9.10736 92.4187 9.70152 93.2219 10.4965C94.0332 11.2914 94.6642 12.2912 95.115 13.4959C95.5657 14.6925 95.7911 16.0939 95.7911 17.7001V19.1384H79.8471V15.8931H90.8616C90.8616 15.1391 90.6977 14.4712 90.3699 13.8893C90.0421 13.3075 89.5872 12.8526 89.0054 12.5248C88.4317 12.1888 87.7638 12.0208 87.0016 12.0208C86.2067 12.0208 85.5019 12.2052 84.8872 12.574C84.2808 12.9346 83.8054 13.4222 83.4612 14.0368C83.117 14.6433 82.9408 15.3194 82.9326 16.0652V19.1507C82.9326 20.085 83.1047 20.8922 83.4489 21.5724C83.8013 22.2526 84.2972 22.7772 84.9364 23.1459C85.5756 23.5147 86.3337 23.6991 87.2106 23.6991C87.7925 23.6991 88.3252 23.6172 88.8087 23.4533C89.2922 23.2894 89.7061 23.0435 90.0503 22.7157C90.3945 22.3879 90.6567 21.9863 90.837 21.511L95.6805 21.8306C95.4346 22.9943 94.9306 24.0105 94.1684 24.8793C93.4145 25.7398 92.4392 26.4118 91.2427 26.8953C90.0544 27.3706 88.6817 27.6083 87.1245 27.6083Z" fill="white"/>
<path d="M103.247 8.35748L106.713 14.9588L110.266 8.35748H115.638L110.168 17.7985L115.786 27.2395H110.438L106.713 20.7119L103.05 27.2395H97.6412L103.247 17.7985L97.8379 8.35748H103.247Z" fill="white"/>
<path d="M126.603 27.6083C124.669 27.6083 123.006 27.1985 121.613 26.379C120.227 25.5513 119.162 24.4039 118.416 22.937C117.679 21.47 117.31 19.7818 117.31 17.8723C117.31 15.9382 117.683 14.2417 118.429 12.783C119.183 11.316 120.252 10.1727 121.637 9.35321C123.022 8.52549 124.669 8.11162 126.579 8.11162C128.226 8.11162 129.669 8.41075 130.906 9.00901C132.143 9.60727 133.123 10.4473 133.844 11.5291C134.565 12.6109 134.963 13.8811 135.036 15.3399H130.095C129.955 14.3974 129.587 13.6394 128.988 13.0657C128.398 12.4838 127.624 12.1929 126.665 12.1929C125.854 12.1929 125.145 12.4142 124.538 12.8567C123.94 13.2911 123.473 13.9262 123.137 14.7621C122.801 15.5981 122.633 16.6102 122.633 17.7985C122.633 19.0032 122.797 20.0276 123.125 20.8717C123.461 21.7159 123.932 22.3592 124.538 22.8017C125.145 23.2443 125.854 23.4656 126.665 23.4656C127.263 23.4656 127.8 23.3426 128.275 23.0968C128.759 22.8509 129.156 22.4944 129.468 22.0273C129.787 21.552 129.996 20.9824 130.095 20.3186H135.036C134.954 21.7609 134.561 23.0312 133.856 24.1294C133.16 25.2194 132.197 26.0717 130.967 26.6863C129.738 27.301 128.283 27.6083 126.603 27.6083Z" fill="white"/>
<path d="M146.994 27.6083C145.052 27.6083 143.38 27.2149 141.979 26.4282C140.586 25.6332 139.512 24.5105 138.758 23.0599C138.004 21.6011 137.627 19.876 137.627 17.8845C137.627 15.9423 138.004 14.2376 138.758 12.7707C139.512 11.3037 140.573 10.1605 141.942 9.34092C143.319 8.52139 144.933 8.11162 146.785 8.11162C148.031 8.11162 149.191 8.31241 150.264 8.71398C151.346 9.10736 152.289 9.70152 153.092 10.4965C153.903 11.2914 154.534 12.2912 154.985 13.4959C155.436 14.6925 155.661 16.0939 155.661 17.7001V19.1384H139.717V15.8931H150.731C150.731 15.1391 150.568 14.4712 150.24 13.8893C149.912 13.3075 149.457 12.8526 148.875 12.5248C148.302 12.1888 147.634 12.0208 146.872 12.0208C146.077 12.0208 145.372 12.2052 144.757 12.574C144.151 12.9346 143.675 13.4222 143.331 14.0368C142.987 14.6433 142.811 15.3194 142.803 16.0652V19.1507C142.803 20.085 142.975 20.8922 143.319 21.5724C143.671 22.2526 144.167 22.7772 144.806 23.1459C145.446 23.5147 146.204 23.6991 147.08 23.6991C147.662 23.6991 148.195 23.6172 148.679 23.4533C149.162 23.2894 149.576 23.0435 149.92 22.7157C150.264 22.3879 150.527 21.9863 150.707 21.511L155.55 21.8306C155.304 22.9943 154.8 24.0105 154.038 24.8793C153.284 25.7398 152.309 26.4118 151.113 26.8953C149.924 27.3706 148.552 27.6083 146.994 27.6083Z" fill="white"/>
<path d="M164.315 16.3233V27.2395H159.078V8.35748H164.069V11.6889H164.291C164.709 10.5907 165.409 9.722 166.393 9.08277C167.376 8.43534 168.569 8.11162 169.97 8.11162C171.281 8.11162 172.425 8.39846 173.4 8.97213C174.375 9.5458 175.133 10.3653 175.674 11.4307C176.215 12.4879 176.485 13.75 176.485 15.217V27.2395H171.248V16.1512C171.257 14.9957 170.962 14.0942 170.363 13.4468C169.765 12.7912 168.941 12.4633 167.892 12.4633C167.188 12.4633 166.565 12.615 166.024 12.9182C165.491 13.2214 165.073 13.664 164.77 14.2458C164.475 14.8195 164.323 15.512 164.315 16.3233Z" fill="white"/>
<path d="M190.656 8.35748V12.2912H179.285V8.35748H190.656ZM181.867 3.83367H187.103V21.4372C187.103 21.9207 187.177 22.2977 187.325 22.5682C187.472 22.8304 187.677 23.0148 187.939 23.1214C188.21 23.2279 188.521 23.2812 188.874 23.2812C189.119 23.2812 189.365 23.2607 189.611 23.2197C189.857 23.1705 190.045 23.1336 190.177 23.1091L191 27.0059C190.738 27.0879 190.369 27.1821 189.894 27.2887C189.419 27.4034 188.841 27.4731 188.161 27.4977C186.898 27.5468 185.792 27.3788 184.841 26.9936C183.899 26.6085 183.165 26.0102 182.641 25.1989C182.117 24.3875 181.858 23.3631 181.867 22.1256V3.83367Z" fill="white"/>
</svg>
