<svg width="66" height="56" viewBox="0 0 66 56" fill="none" xmlns="http://www.w3.org/2000/svg">
<path d="M65.5 38C65.5 47.9411 57.4411 56 47.5 56L20.5 56C17.7386 56 15.5 53.7614 15.5 51L15.5 17C15.5 11.4772 19.9772 7 25.5 7L60.5 7C63.2614 7 65.5 9.23858 65.5 12L65.5 38Z" fill="#E8F5E9"/>
<path d="M27.4172 19.0106C27.1052 19.0106 26.8516 18.7574 26.8516 18.445V17.4836C26.8516 17.1716 27.1048 16.918 27.4172 16.918C27.7293 16.918 27.9829 17.1712 27.9829 17.4836V18.445C27.9829 18.7574 27.7293 19.0106 27.4172 19.0106Z" fill="#103E13"/>
<path d="M25.0383 19.0106C24.7263 19.0106 24.4727 18.7574 24.4727 18.445V17.4836C24.4727 17.1716 24.7259 16.918 25.0383 16.918C25.3504 16.918 25.604 17.1712 25.604 17.4836V18.445C25.6036 18.7574 25.3508 19.0106 25.0383 19.0106Z" fill="#103E13"/>
<path d="M22.6594 19.0106C22.3474 19.0106 22.0938 18.7574 22.0938 18.445V17.4836C22.0938 17.1716 22.347 16.918 22.6594 16.918C22.9714 16.918 23.2251 17.1712 23.2251 17.4836V18.445C23.2251 18.7574 22.9719 19.0106 22.6594 19.0106Z" fill="#103E13"/>
<path d="M27.4172 22.9419C27.1052 22.9419 26.8516 22.6886 26.8516 22.3762V21.4153C26.8516 21.1033 27.1048 20.8496 27.4172 20.8496C27.7293 20.8496 27.9829 21.1029 27.9829 21.4153V22.3762C27.9829 22.6886 27.7293 22.9419 27.4172 22.9419Z" fill="#103E13"/>
<path d="M25.0383 22.9419C24.7263 22.9419 24.4727 22.6886 24.4727 22.3762V21.4153C24.4727 21.1033 24.7259 20.8496 25.0383 20.8496C25.3504 20.8496 25.604 21.1029 25.604 21.4153V22.3762C25.6036 22.6886 25.3508 22.9419 25.0383 22.9419Z" fill="#103E13"/>
<path d="M22.6594 22.9419C22.3474 22.9419 22.0938 22.6886 22.0938 22.3762V21.4153C22.0938 21.1033 22.347 20.8496 22.6594 20.8496C22.9714 20.8496 23.2251 21.1029 23.2251 21.4153V22.3762C23.2251 22.6886 22.9719 22.9419 22.6594 22.9419Z" fill="#103E13"/>
<path d="M27.4172 26.8734C27.1052 26.8734 26.8516 26.6202 26.8516 26.3078V25.3464C26.8516 25.0344 27.1048 24.7808 27.4172 24.7808C27.7293 24.7808 27.9829 25.034 27.9829 25.3464V26.3078C27.9829 26.6202 27.7293 26.8734 27.4172 26.8734Z" fill="#103E13"/>
<path d="M25.0383 26.8734C24.7263 26.8734 24.4727 26.6202 24.4727 26.3078V25.3464C24.4727 25.0344 24.7259 24.7808 25.0383 24.7808C25.3504 24.7808 25.604 25.034 25.604 25.3464V26.3078C25.6036 26.6202 25.3508 26.8734 25.0383 26.8734Z" fill="#103E13"/>
<path d="M22.6594 26.8734C22.3474 26.8734 22.0938 26.6202 22.0938 26.3078V25.3464C22.0938 25.0344 22.347 24.7808 22.6594 24.7808C22.9714 24.7808 23.2251 25.034 23.2251 25.3464V26.3078C23.2251 26.6202 22.9719 26.8734 22.6594 26.8734Z" fill="#103E13"/>
<path d="M27.4172 30.8036C27.1052 30.8036 26.8516 30.5504 26.8516 30.2379V29.2766C26.8516 28.9646 27.1048 28.7109 27.4172 28.7109C27.7293 28.7109 27.9829 28.9642 27.9829 29.2766V30.2379C27.9829 30.5504 27.7293 30.8036 27.4172 30.8036Z" fill="#103E13"/>
<path d="M25.0383 30.8036C24.7263 30.8036 24.4727 30.5504 24.4727 30.2379V29.2766C24.4727 28.9646 24.7259 28.7109 25.0383 28.7109C25.3504 28.7109 25.604 28.9642 25.604 29.2766V30.2379C25.6036 30.5504 25.3508 30.8036 25.0383 30.8036Z" fill="#103E13"/>
<path d="M22.6594 30.8036C22.3474 30.8036 22.0938 30.5504 22.0938 30.2379V29.2766C22.0938 28.9646 22.347 28.7109 22.6594 28.7109C22.9714 28.7109 23.2251 28.9642 23.2251 29.2766V30.2379C23.2251 30.5504 22.9719 30.8036 22.6594 30.8036Z" fill="#103E13"/>
<path d="M27.4172 34.7349C27.1052 34.7349 26.8516 34.4816 26.8516 34.1692V33.2083C26.8516 32.8962 27.1048 32.6426 27.4172 32.6426C27.7293 32.6426 27.9829 32.8958 27.9829 33.2083V34.1692C27.9829 34.4812 27.7293 34.7349 27.4172 34.7349Z" fill="#103E13"/>
<path d="M25.0383 34.7349C24.7263 34.7349 24.4727 34.4816 24.4727 34.1692V33.2083C24.4727 32.8962 24.7259 32.6426 25.0383 32.6426C25.3504 32.6426 25.604 32.8958 25.604 33.2083V34.1692C25.6036 34.4812 25.3508 34.7349 25.0383 34.7349Z" fill="#103E13"/>
<path d="M22.6594 34.7349C22.3474 34.7349 22.0938 34.4816 22.0938 34.1692L22.0941 33.2083C22.0941 32.8962 22.3474 32.6426 22.6598 32.6426C22.9718 32.6426 23.2255 32.8958 23.2255 33.2083V34.1692C23.2251 34.4812 22.9719 34.7349 22.6594 34.7349Z" fill="#103E13"/>
<path d="M6.50047 38.6471C6.50047 38.9592 6.75372 39.2128 7.06615 39.2128H41.5139C41.8259 39.2128 42.0796 38.9596 42.0796 38.6471C42.0796 38.3351 41.8263 38.0815 41.5139 38.0815H40.4682V21.8402C40.4682 21.5281 40.215 21.2745 39.9025 21.2745L30.6668 21.2749V9.56576C30.6668 9.36774 30.5635 9.18471 30.3946 9.08214C30.2262 8.97919 30.0156 8.97287 29.8404 9.06399L19.3401 14.531C19.1527 14.6284 19.0359 14.8217 19.0359 15.0327V25.2604H8.87388C8.56186 25.2604 8.3082 25.5137 8.3082 25.8261V38.0816H7.06489C6.75287 38.0812 6.5 38.3344 6.5 38.6468L6.50047 38.6471ZM30.667 29.8422H39.3374V38.0819L30.667 38.0815V29.8422ZM30.667 25.9113H39.3374V28.7113L30.667 28.7109V25.9113ZM30.667 22.4056H39.3374V24.7808H30.667V22.4056ZM20.1667 15.3762L29.5353 10.4982V38.081H20.1667V15.3762ZM12.2359 33.5635C12.2359 32.3895 13.166 31.4341 14.3096 31.4341C15.4531 31.4341 16.3837 32.3891 16.3837 33.5635V38.0817H12.2359V33.5635ZM9.43952 26.3916H19.0358V38.0815H17.515V33.5633C17.515 31.7657 16.0776 30.303 14.3096 30.303C12.5424 30.303 11.105 31.7653 11.105 33.5633V38.0815H9.43952V26.3916Z" fill="#103E13"/>
</svg>
