<svg width="32" height="33" viewBox="0 0 32 33" fill="none" xmlns="http://www.w3.org/2000/svg">
<path opacity="0.1" fill-rule="evenodd" clip-rule="evenodd" d="M0 16.6719C0 7.83532 7.16344 0.671875 16 0.671875C24.8366 0.671875 32 7.83532 32 16.6719C32 25.5084 24.8366 32.6719 16 32.6719C7.16344 32.6719 0 25.5084 0 16.6719Z" fill="white"/>
<path fill-rule="evenodd" clip-rule="evenodd" d="M16.0009 8.13843C13.6834 8.13843 13.3925 8.14856 12.4823 8.18998C11.5739 8.23158 10.9538 8.37541 10.4112 8.58643C9.84993 8.80439 9.37384 9.09595 8.89952 9.57044C8.42485 10.0448 8.13329 10.5209 7.91462 11.0819C7.70307 11.6247 7.55906 12.245 7.51818 13.1531C7.47746 14.0633 7.4668 14.3543 7.4668 16.6718C7.4668 18.9894 7.47711 19.2793 7.51835 20.1896C7.56013 21.098 7.70395 21.7181 7.9148 22.2607C8.13294 22.822 8.4245 23.2981 8.89899 23.7724C9.37313 24.247 9.84922 24.5393 10.4101 24.7573C10.9531 24.9683 11.5733 25.1121 12.4816 25.1537C13.3918 25.1951 13.6825 25.2053 15.9999 25.2053C18.3176 25.2053 18.6075 25.1951 19.5178 25.1537C20.4262 25.1121 21.047 24.9683 21.59 24.7573C22.151 24.5393 22.6264 24.247 23.1006 23.7724C23.5752 23.2981 23.8668 22.822 24.0855 22.2609C24.2952 21.7181 24.4392 21.0979 24.4819 20.1898C24.5228 19.2795 24.5335 18.9894 24.5335 16.6718C24.5335 14.3543 24.5228 14.0635 24.4819 13.1532C24.4392 12.2448 24.2952 11.6247 24.0855 11.0821C23.8668 10.5209 23.5752 10.0448 23.1006 9.57044C22.6259 9.09577 22.1512 8.80421 21.5894 8.58643C21.0454 8.37541 20.425 8.23158 19.5165 8.18998C18.6063 8.14856 18.3165 8.13843 15.9983 8.13843H16.0009ZM15.2354 9.6762C15.4626 9.67584 15.7161 9.6762 16.0009 9.6762C18.2793 9.6762 18.5494 9.68438 19.4491 9.72526C20.2811 9.76331 20.7327 9.90233 21.0335 10.0191C21.4317 10.1738 21.7156 10.3587 22.0141 10.6574C22.3128 10.956 22.4977 11.2405 22.6527 11.6387C22.7695 11.9392 22.9087 12.3907 22.9466 13.2227C22.9875 14.1223 22.9963 14.3925 22.9963 16.6699C22.9963 18.9472 22.9875 19.2175 22.9466 20.117C22.9085 20.949 22.7695 21.4006 22.6527 21.701C22.498 22.0993 22.3128 22.3828 22.0141 22.6813C21.7154 22.98 21.4319 23.1649 21.0335 23.3195C20.733 23.4369 20.2811 23.5755 19.4491 23.6136C18.5495 23.6545 18.2793 23.6634 16.0009 23.6634C13.7223 23.6634 13.4522 23.6545 12.5527 23.6136C11.7207 23.5752 11.2691 23.4362 10.9681 23.3194C10.5699 23.1647 10.2855 22.9798 9.98679 22.6811C9.68812 22.3825 9.50323 22.0987 9.3482 21.7003C9.2314 21.3999 9.0922 20.9483 9.05433 20.1163C9.01344 19.2167 9.00527 18.9465 9.00527 16.6677C9.00527 14.389 9.01344 14.1202 9.05433 13.2206C9.09238 12.3886 9.2314 11.937 9.3482 11.6362C9.50287 11.238 9.68812 10.9535 9.98679 10.6549C10.2855 10.3562 10.5699 10.1713 10.9681 10.0163C11.2689 9.89896 11.7207 9.76029 12.5527 9.72206C13.3399 9.68651 13.645 9.67584 15.2354 9.67406V9.6762ZM20.556 11.0931C19.9906 11.0931 19.532 11.5512 19.532 12.1168C19.532 12.6821 19.9906 13.1408 20.556 13.1408C21.1213 13.1408 21.58 12.6821 21.58 12.1168C21.58 11.5514 21.1213 11.0931 20.556 11.0931ZM16.0009 12.2896C13.5808 12.2896 11.6187 14.2517 11.6187 16.6718C11.6187 19.0919 13.5808 21.0532 16.0009 21.0532C18.4211 21.0532 20.3825 19.0919 20.3825 16.6718C20.3825 14.2517 18.4211 12.2896 16.0009 12.2896ZM16.0009 13.8274C17.5718 13.8274 18.8454 15.1008 18.8454 16.6718C18.8454 18.2427 17.5718 19.5163 16.0009 19.5163C14.4299 19.5163 13.1564 18.2427 13.1564 16.6718C13.1564 15.1008 14.4299 13.8274 16.0009 13.8274Z" fill="white"/>
</svg>
